<svg width="148" height="49" viewBox="0 0 148 49" fill="none" xmlns="http://www.w3.org/2000/svg">
<rect y="2.01392" width="23.5003" height="43" rx="11.7502" fill="white"/>
<rect x="7.0498" y="20.4426" width="9.40012" height="17.6607" rx="4.70006" fill="#FF8252"/>
<rect x="7.0498" y="8.9248" width="9.40012" height="6.91071" rx="3.45536" fill="#FF8252"/>
<path d="M44.3594 36V10.62H49.9754V36H44.3594ZM75.8557 10.62H80.2117V36H75.2797V20.952L69.4477 31.824H65.8477L60.0157 21.096V36H55.0837V10.62H59.5117L67.6837 26.136L75.8557 10.62ZM85.3164 36V10.62H90.9324V36H85.3164ZM112.745 10.62H118.001V36H113.825L101.189 19.836V36H95.9687V10.62H100.109L112.745 26.712V10.62ZM139.815 10.62H145.071V36H140.895L128.259 19.836V36H123.039V10.62H127.179L139.815 26.712V10.62Z" fill="white"/>
</svg>
