<svg width="145" height="47" viewBox="0 0 145 47" fill="none" xmlns="http://www.w3.org/2000/svg">
<rect y="2.01367" width="22.8214" height="41.7578" rx="11.4107" fill="#FF8252"/>
<rect x="6.8457" y="19.9102" width="9.12857" height="17.1505" rx="4.56429" fill="white"/>
<rect x="6.8457" y="8.72461" width="9.12857" height="6.71108" rx="3.35554" fill="white"/>
<path d="M44.2808 35V10.4158H49.7207V35H44.2808ZM74.7896 10.4158H79.009V35H74.2317V20.4238L68.5825 30.9549H65.0954L59.4463 20.5633V35H54.6689V10.4158H58.9581L66.8738 25.4453L74.7896 10.4158ZM83.9536 35V10.4158H89.3935V35H83.9536ZM110.522 10.4158H115.613V35H111.568L99.3283 19.3428V35H94.272V10.4158H98.2822L110.522 26.0032V10.4158ZM136.743 10.4158H141.835V35H137.79L125.55 19.3428V35H120.493V10.4158H124.504L136.743 26.0032V10.4158Z" fill="#252729"/>
</svg>
